<svg xmlns="http://www.w3.org/2000/svg" width="56" height="56" viewBox="0 0 56 56">
    <defs>
        <clipPath id="mtqdec39da">
            <path data-name="사각형 117112" style="fill:#202020" d="M0 0h40.969v40.98H0z"/>
        </clipPath>
    </defs>
    <g data-name="그룹 137211">
        <g data-name="그룹 137193">
            <g data-name="그룹 137192" style="clip-path:url(#mtqdec39da)" transform="translate(7.848 7.51)">
                <path data-name="패스 121126" d="M17.066 25.61a1.707 1.707 0 1 1-1.708-1.71 1.708 1.708 0 0 1 1.708 1.707m5.9-5.188 7.234-7.168a10.06 10.06 0 0 1-.429 13.107A8.611 8.611 0 0 1 27.473 28a.288.288 0 0 0-.17.227 12.033 12.033 0 0 1-11.29 12.734q-.486.03-.972.019A15.019 15.019 0 0 1 4.5 36.479c-5.591-5.586-6.029-14.24-.983-19.293a12.245 12.245 0 0 1 9.221-3.511.438.438 0 0 0 .232-.188 8.572 8.572 0 0 1 1.639-2.294 10.073 10.073 0 0 1 13.184-.362l-7.232 7.159zm-11.1 12.946L7.595 29.1l-2.407 2.412 4.269 4.269zm8.617-7.757a5.122 5.122 0 1 0-5.123 5.123 5.123 5.123 0 0 0 5.123-5.123M40.085.884a3.018 3.018 0 0 0-4.267 0l-3.386 3.384v1.974l-4.64 4.593A11.35 11.35 0 0 1 29.07 11.9a11.58 11.58 0 0 1 1.13 1.366l4.768-4.728H36.7l3.384-3.384a3.019 3.019 0 0 0 0-4.266" style="fill:#202020"/>
            </g>
        </g>
    </g>
</svg>
