<svg xmlns="http://www.w3.org/2000/svg" width="56" height="56" viewBox="0 0 56 56">
    <defs>
        <clipPath id="3mv0rhoj3a">
            <path data-name="사각형 117117" style="fill:#d7262e" d="M0 0h42.112v42.043H0z"/>
        </clipPath>
    </defs>
    <g data-name="그룹 137214">
        <g data-name="그룹 137203">
            <g data-name="그룹 137202" transform="translate(7.277 6.979)" style="clip-path:url(#3mv0rhoj3a)">
                <path data-name="패스 121131" d="M40.311 24.5a18.6 18.6 0 0 0-17.5 11.7V24.338a10.538 10.538 0 0 0 8.773-10.37c0-7.019-6.829-12.508-6.87-12.546a35.922 35.922 0 0 0-3.658 14.3h-3.509A39.078 39.078 0 0 1 21.509.026a5.3 5.3 0 0 0-4.235 1.5c-3.336 3.4-6.745 7.543-6.745 12.444A10.538 10.538 0 0 0 19.3 24.338V36.2A18.6 18.6 0 0 0 1.8 24.5H0l.223 1.972c1.4 12.32 12.937 15.575 18.833 15.575h4c5.905 0 17.435-3.255 18.83-15.575l.227-1.972z" style="fill:#d7262e"/>
            </g>
        </g>
    </g>
</svg>
