<svg xmlns="http://www.w3.org/2000/svg" width="56" height="56" viewBox="0 0 56 56">
    <g data-name="그룹 137213">
        <g data-name="그룹 137204">
            <path data-name="패스 121132" d="m0 40.336 15.491-7.6v-7.867L0 20.751z" transform="translate(7.25 -.653)" style="fill:#d7262e"/>
            <path data-name="패스 121133" d="m.272 55.641 22.5 6.75V49.056l-5.893-1.567z" transform="translate(7.121 -13.371)" style="fill:#d7262e"/>
            <path data-name="패스 121134" d="m1.739 8.95 14.579 3.876V.618z" transform="translate(6.423 8.924)" style="fill:#d7262e"/>
            <path data-name="패스 121135" d="M34.088 0v13.165l5.894 1.567 16.393-8.046z" transform="translate(-8.965 9.218)" style="fill:#d7262e"/>
            <path data-name="패스 121136" d="M47.73 25.089v7.862l15.491 4.12V17.487z" transform="translate(-15.453 .9)" style="fill:#d7262e"/>
            <path data-name="패스 121137" d="m34.089 36.913 4.769 1.268v-7.1l-4.769-1.268z" transform="translate(-8.965 -4.963)" style="fill:#d7262e"/>
            <path data-name="패스 121138" d="m47.73 64.064 14.781-8.446-14.781-3.931z" transform="translate(-15.453 -15.368)" style="fill:#d7262e"/>
        </g>
    </g>
</svg>
