<svg data-name="그룹 137212" xmlns="http://www.w3.org/2000/svg" width="56" height="56" viewBox="0 0 56 56">
    <defs>
        <clipPath id="itv91hprta">
            <path data-name="사각형 117115" style="fill:#202020" d="M0 0h40.992v41.021H0z"/>
        </clipPath>
    </defs>
    <g data-name="그룹 137199">
        <g data-name="그룹 137198" transform="translate(7.504 7.511)" style="clip-path:url(#itv91hprta)">
            <path data-name="패스 121129" d="M6.834 13.705a6.829 6.829 0 1 1 6.829-6.829 6.829 6.829 0 0 1-6.829 6.829m6.716.887 17.585 17.586a18.506 18.506 0 0 0 4.51-3.319 17.925 17.925 0 0 0 5.334-12.153 16.065 16.065 0 0 0-4.67-11.982 16.636 16.636 0 0 0-20.256-2.3 10.176 10.176 0 0 1-2.5 12.171m-3.01 1.82a10.22 10.22 0 0 1-3.66.707 18.123 18.123 0 0 0 1.8 8.536.825.825 0 0 1-.138.987l-6.348 4.4A5.742 5.742 0 0 0 0 35.158a4.82 4.82 0 0 0 1.461 3.672l.759.721a5.029 5.029 0 0 0 3.557 1.47 5.463 5.463 0 0 0 3.884-1.843l4.684-6.693a.853.853 0 0 1 1.024-.2 17.827 17.827 0 0 0 12.292 1.259z" style="fill:#202020"/>
        </g>
    </g>
</svg>
